<svg width="20" height="20" viewBox="0 0 20 20" fill="none" xmlns="http://www.w3.org/2000/svg">
<path d="M14.1667 2.5C14.3789 2.2492 14.6414 2.04505 14.9375 1.90057C15.2336 1.75609 15.5567 1.67445 15.8864 1.66085C16.216 1.64725 16.5448 1.70198 16.852 1.82157C17.1591 1.94116 17.4378 2.12298 17.6702 2.35544C17.9027 2.58789 18.0838 2.86589 18.2021 3.1717C18.3204 3.47752 18.3732 3.80445 18.3572 4.13165C18.3411 4.45885 18.2567 4.77916 18.1091 5.07214C17.9615 5.36512 17.7541 5.62436 17.5 5.83333L6.24999 17.0833L1.66666 18.3333L2.91666 13.75L14.1667 2.5Z" stroke="black" stroke-linecap="round" stroke-linejoin="round"/>
<path d="M12.5 4.16669L15.8333 7.50002" stroke="black" stroke-linecap="round" stroke-linejoin="round"/>
</svg>
